<svg width="400px" height="400px" viewBox="0 0 400 400" viewport-fill="red" version="1.1" xmlns="http://www.w3.org/2000/svg" xmlns:xlink="http://www.w3.org/1999/xlink">
	<g id="first_line" stroke="none" stroke-width="1" fill="none" fill-rule="evenodd">
	<g>
		<clipPath id="clipCircle">
			<circle r="132" cx="200" cy="200"/>
		</clipPath>
		<image xlink:href="https://cdn.intra.42.fr/users/medium_qdequele.jpg" x="32" y="32" height="336" width="336" clip-path="url(#clipCircle)"/>
	</g>
	<g>
		<circle stroke="#0084ff" stroke-width="4" cx="200" cy="44" r="8"></circle>
		<circle stroke="#0084ff" stroke-width="4" cx="200" cy="44" r="1"></circle>
	</g>
	<g>
		<circle stroke="#0084ff" stroke-width="4" cx="200" cy="356" r="8"></circle>
		<circle stroke="#0084ff" stroke-width="4" cx="200" cy="356" r="1"></circle>
	</g>
	<g>
		<circle stroke="#0084ff" stroke-width="4" cx="44" cy="200" r="8"></circle>
		<circle stroke="#0084ff" stroke-width="4" cx="44" cy="200" r="1"></circle>
	</g>
	<g>
		<circle stroke="#0084ff" stroke-width="4" cx="356" cy="200" r="8"></circle>
		<circle stroke="#0084ff" stroke-width="4" cx="356" cy="200" r="1"></circle>
	</g>
	<g>
		<path stroke-linecap="round" fill="none" stroke="#0084ff" stroke-width="6" d="M 337.88799976141604 315.7017697435771 A 180 180 0 0 0 355.88457268119896 290"></path>
		<path stroke-linecap="round" fill="none" stroke="#0084ff" stroke-width="6" d="M 200 380 A 180 180 0 0 0 231.25667198004749 377.26539554219744"></path>
		<path stroke-linecap="round" fill="none" stroke="#0084ff" stroke-width="6" d="M 84.29823025642294 337.88799976141604 A 180 180 0 0 0 168.74332801995254 377.26539554219744"></path>
		<path stroke-linecap="round" fill="none" stroke="#0084ff" stroke-width="6" d="M 20 200.00000000000003 A 180 180 0 0 0 44.11542731880104 290"></path>
		<path stroke-linecap="round" fill="none" stroke="#0084ff" stroke-width="6" d="M 44.11542731880104 109.99999999999999 A 180 180 0 0 0 22.73460445780256 168.74332801995251"></path>
		<path stroke-linecap="round" fill="none" stroke="#0084ff" stroke-width="6" d="M 84.29823025642287 62.11200023858399 A 180 180 0 0 0 62.11200023858393 84.29823025642294"></path>
		<path stroke-linecap="round" fill="none" stroke="#0084ff" stroke-width="6" d="M 138.43637420137966 30.855328258536474 A 180 180 0 0 0 109.99999999999991 44.115427318801096"></path>
		<path stroke-linecap="round" fill="none" stroke="#0084ff" stroke-width="6" d="M 261.5636257986204 30.855328258536503 A 180 180 0 0 0 231.2566719800474 22.734604457802533"></path>
		<path stroke-linecap="round" fill="none" stroke="#0084ff" stroke-width="6" d="M 369.1446717414635 138.43637420137966 A 180 180 0 0 0 290 44.11542731880104"></path>
		<path stroke-linecap="round" fill="none" stroke="#0084ff" stroke-width="6" d="M 377.26539554219744 168.74332801995254 A 180 180 0 0 0 377.26539554219744 168.74332801995254"></path>
	</g>
	<g>
		<path stroke-linecap="round" fill="none" stroke="#0084ff" stroke-width="6" d="M 365.447702506051 229.17289384804428 A 168 168 0 0 0 368 200"></path>
		<path stroke-linecap="round" fill="none" stroke="#0084ff" stroke-width="6" d="M 328.6954664439883 307.9883184273386 A 168 168 0 0 0 357.8683602920326 257.45938407871233"></path>
		<path stroke-linecap="round" fill="none" stroke="#0084ff" stroke-width="6" d="M 170.82710615195572 365.447702506051 A 168 168 0 0 0 229.1728938480443 365.447702506051"></path>
		<path stroke-linecap="round" fill="none" stroke="#0084ff" stroke-width="6" d="M 54.5077321642143 284 A 168 168 0 0 0 71.3045335560117 307.98831842733864"></path>
		<path stroke-linecap="round" fill="none" stroke="#0084ff" stroke-width="6" d="M 32 200.00000000000003 A 168 168 0 0 0 42.131639707967395 257.4593840787124"></path>
		<path stroke-linecap="round" fill="none" stroke="#0084ff" stroke-width="6" d="M 54.5077321642143 115.99999999999999 A 168 168 0 0 0 42.131639707967395 142.54061592128767"></path>
		<path stroke-linecap="round" fill="none" stroke="#0084ff" stroke-width="6" d="M 170.82710615195572 34.552297493949055 A 168 168 0 0 0 92.01168157266135 71.3045335560117"></path>
		<path stroke-linecap="round" fill="none" stroke="#0084ff" stroke-width="6" d="M 257.4593840787124 42.131639707967395 A 168 168 0 0 0 229.17289384804423 34.55229749394903"></path>
		<path stroke-linecap="round" fill="none" stroke="#0084ff" stroke-width="6" d="M 345.49226783578564 115.99999999999993 A 168 168 0 0 0 284 54.5077321642143"></path>
		<path stroke-linecap="round" fill="none" stroke="#0084ff" stroke-width="6" d="M 365.447702506051 170.8271061519557 A 168 168 0 0 0 357.8683602920326 142.54061592128767"></path>
	</g>
	<g>
		<path stroke-linecap="round" fill="none" stroke="#0084ff" stroke-width="6" d="M 353.63000946990445 227.08911571604114 A 156 156 0 0 0 356 200"></path>
		<path stroke-linecap="round" fill="none" stroke="#0084ff" stroke-width="6" d="M 319.5029331265606 300.2748671111001 A 156 156 0 0 0 335.09996299037243 278"></path>
		<path stroke-linecap="round" fill="none" stroke="#0084ff" stroke-width="6" d="M 200 356 A 156 156 0 0 0 253.35514235880433 346.5920488426017"></path>
		<path stroke-linecap="round" fill="none" stroke="#0084ff" stroke-width="6" d="M 99.72513288889988 319.5029331265606 A 156 156 0 0 0 172.91088428395886 353.63000946990445"></path>
		<path stroke-linecap="round" fill="none" stroke="#0084ff" stroke-width="6" d="M 46.36999053009552 227.0891157160411 A 156 156 0 0 0 64.90003700962757 278"></path>
		<path stroke-linecap="round" fill="none" stroke="#0084ff" stroke-width="6" d="M 46.36999053009555 172.91088428395884 A 156 156 0 0 0 44 200.00000000000003"></path>
		<path stroke-linecap="round" fill="none" stroke="#0084ff" stroke-width="6" d="M 99.72513288889982 80.49706687343945 A 156 156 0 0 0 64.90003700962757 121.99999999999999"></path>
		<path stroke-linecap="round" fill="none" stroke="#0084ff" stroke-width="6" d="M 172.91088428395886 46.36999053009555 A 156 156 0 0 0 146.6448576411957 53.40795115739829"></path>
		<path stroke-linecap="round" fill="none" stroke="#0084ff" stroke-width="6" d="M 253.35514235880436 53.407951157398315 A 156 156 0 0 0 199.99999999999997 44"></path>
		<path stroke-linecap="round" fill="none" stroke="#0084ff" stroke-width="6" d="M 335.0999629903724 121.99999999999993 A 156 156 0 0 0 300.2748671111001 80.49706687343941"></path>
		<path stroke-linecap="round" fill="none" stroke="#0084ff" stroke-width="6" d="M 353.63000946990445 172.91088428395886 A 156 156 0 0 0 353.63000946990445 172.91088428395886"></path>
	</g>
	<g>
		<path stroke-linecap="round" fill="none" stroke="#0084ff" stroke-width="6" d="M 310.31039980913283 292.56141579486166 A 144 144 0 0 0 344 200"></path>
		<path stroke-linecap="round" fill="none" stroke="#0084ff" stroke-width="6" d="M 150.7490993611037 335.3157373931708 A 144 144 0 0 0 249.25090063889633 335.3157373931708"></path>
		<path stroke-linecap="round" fill="none" stroke="#0084ff" stroke-width="6" d="M 58.187683566242015 225.00533758403796 A 144 144 0 0 0 64.68426260682921 249.25090063889633"></path>
		<path stroke-linecap="round" fill="none" stroke="#0084ff" stroke-width="6" d="M 64.68426260682918 150.74909936110373 A 144 144 0 0 0 56 200.00000000000003"></path>
	</g>
	</g>
</svg>