<svg width="400px" height="400px" viewBox="0 0 400 400" viewport-fill="red" version="1.1" xmlns="http://www.w3.org/2000/svg" xmlns:xlink="http://www.w3.org/1999/xlink">
	<g id="first_line" stroke="none" stroke-width="1" fill="none" fill-rule="evenodd">
	<g>
		<clipPath id="clipCircle">
			<circle r="116" cx="200" cy="200"/>
		</clipPath>
		<image xlink:href="https://cdn.intra.42.fr/users/medium_qdequele.jpg" x="36" y="36" height="328" width="328" clip-path="url(#clipCircle)"/>
	</g>
	<g>
		<circle stroke="#0084ff" stroke-width="4" cx="200" cy="52" r="8"></circle>
		<circle stroke="#0084ff" stroke-width="4" cx="200" cy="52" r="1"></circle>
	</g>
	<g>
		<circle stroke="#0084ff" stroke-width="4" cx="200" cy="348" r="8"></circle>
		<circle stroke="#0084ff" stroke-width="4" cx="200" cy="348" r="1"></circle>
	</g>
	<g>
		<circle stroke="#0084ff" stroke-width="4" cx="52" cy="200" r="8"></circle>
		<circle stroke="#0084ff" stroke-width="4" cx="52" cy="200" r="1"></circle>
	</g>
	<g>
		<circle stroke="#0084ff" stroke-width="4" cx="348" cy="200" r="8"></circle>
		<circle stroke="#0084ff" stroke-width="4" cx="348" cy="200" r="1"></circle>
	</g>
	<g>
		<path stroke-linecap="round" fill="none" stroke="#0084ff" stroke-width="6" d="M 337.88799976141604 315.7017697435771 A 180 180 0 0 0 355.88457268119896 290"></path>
		<path stroke-linecap="round" fill="none" stroke="#0084ff" stroke-width="6" d="M 200 380 A 180 180 0 0 0 231.25667198004749 377.26539554219744"></path>
		<path stroke-linecap="round" fill="none" stroke="#0084ff" stroke-width="6" d="M 84.29823025642294 337.88799976141604 A 180 180 0 0 0 168.74332801995254 377.26539554219744"></path>
		<path stroke-linecap="round" fill="none" stroke="#0084ff" stroke-width="6" d="M 20 200.00000000000003 A 180 180 0 0 0 44.11542731880104 290"></path>
		<path stroke-linecap="round" fill="none" stroke="#0084ff" stroke-width="6" d="M 44.11542731880104 109.99999999999999 A 180 180 0 0 0 22.73460445780256 168.74332801995251"></path>
		<path stroke-linecap="round" fill="none" stroke="#0084ff" stroke-width="6" d="M 84.29823025642287 62.11200023858399 A 180 180 0 0 0 62.11200023858393 84.29823025642294"></path>
		<path stroke-linecap="round" fill="none" stroke="#0084ff" stroke-width="6" d="M 138.43637420137966 30.855328258536474 A 180 180 0 0 0 109.99999999999991 44.115427318801096"></path>
		<path stroke-linecap="round" fill="none" stroke="#0084ff" stroke-width="6" d="M 261.5636257986204 30.855328258536503 A 180 180 0 0 0 231.2566719800474 22.734604457802533"></path>
		<path stroke-linecap="round" fill="none" stroke="#0084ff" stroke-width="6" d="M 369.1446717414635 138.43637420137966 A 180 180 0 0 0 290 44.11542731880104"></path>
		<path stroke-linecap="round" fill="none" stroke="#0084ff" stroke-width="6" d="M 377.26539554219744 168.74332801995254 A 180 180 0 0 0 377.26539554219744 168.74332801995254"></path>
	</g>
	<g>
		<path stroke-linecap="round" fill="none" stroke="#0084ff" stroke-width="6" d="M 361.50847149400215 228.47830113737658 A 164 164 0 0 0 364 200"></path>
		<path stroke-linecap="round" fill="none" stroke="#0084ff" stroke-width="6" d="M 325.6312886715124 305.41716798859244 A 164 164 0 0 0 354.109589808889 256.09130350540966"></path>
		<path stroke-linecap="round" fill="none" stroke="#0084ff" stroke-width="6" d="M 118.00000000000004 342.02816622064796 A 164 164 0 0 0 171.52169886262342 361.50847149400215"></path>
		<path stroke-linecap="round" fill="none" stroke="#0084ff" stroke-width="6" d="M 38.49152850599788 228.47830113737655 A 164 164 0 0 0 45.890410191111044 256.0913035054097"></path>
		<path stroke-linecap="round" fill="none" stroke="#0084ff" stroke-width="6" d="M 74.36871132848759 94.58283201140756 A 164 164 0 0 0 45.890410191111016 143.90869649459034"></path>
		<path stroke-linecap="round" fill="none" stroke="#0084ff" stroke-width="6" d="M 143.90869649459037 45.890410191111016 A 164 164 0 0 0 117.99999999999993 57.971833779352096"></path>
		<path stroke-linecap="round" fill="none" stroke="#0084ff" stroke-width="6" d="M 325.6312886715124 94.5828320114075 A 164 164 0 0 0 256.0913035054097 45.890410191111044"></path>
		<path stroke-linecap="round" fill="none" stroke="#0084ff" stroke-width="6" d="M 361.50847149400215 171.52169886262342 A 164 164 0 0 0 354.109589808889 143.90869649459034"></path>
		<path stroke-linecap="round" fill="none" stroke="#0084ff" stroke-width="6" d="M 361.50847149400215 228.4783011373765 A 164 164 0 0 0 361.50847149400215 228.4783011373765"></path>
	</g>
	<g>
		<path stroke-linecap="round" fill="none" stroke="#0084ff" stroke-width="6" d="M 313.3745775816088 295.1325662336078 A 148 148 0 0 0 345.75154744580675 225.6999302947057"></path>
		<path stroke-linecap="round" fill="none" stroke="#0084ff" stroke-width="6" d="M 250.618981212199 339.07450787631444 A 148 148 0 0 0 295.1325662336078 313.3745775816087"></path>
		<path stroke-linecap="round" fill="none" stroke="#0084ff" stroke-width="6" d="M 126.00000000000003 328.17175976009696 A 148 148 0 0 0 149.38101878780103 339.07450787631444"></path>
		<path stroke-linecap="round" fill="none" stroke="#0084ff" stroke-width="6" d="M 54.24845255419319 225.69993029470567 A 148 148 0 0 0 71.82824023990307 274"></path>
		<path stroke-linecap="round" fill="none" stroke="#0084ff" stroke-width="6" d="M 104.86743376639214 86.62542241839127 A 148 148 0 0 0 60.92549212368556 149.38101878780105"></path>
		<path stroke-linecap="round" fill="none" stroke="#0084ff" stroke-width="6" d="M 174.3000697052943 54.24845255419322 A 148 148 0 0 0 149.38101878780105 60.92549212368556"></path>
		<path stroke-linecap="round" fill="none" stroke="#0084ff" stroke-width="6" d="M 250.618981212199 60.92549212368556 A 148 148 0 0 0 225.69993029470564 54.24845255419319"></path>
		<path stroke-linecap="round" fill="none" stroke="#0084ff" stroke-width="6" d="M 295.1325662336078 86.62542241839124 A 148 148 0 0 0 274 71.8282402399031"></path>
		<path stroke-linecap="round" fill="none" stroke="#0084ff" stroke-width="6" d="M 345.75154744580675 174.3000697052943 A 148 148 0 0 0 328.17175976009685 125.99999999999993"></path>
		<path stroke-linecap="round" fill="none" stroke="#0084ff" stroke-width="6" d="M 345.7515474458068 225.69993029470564 A 148 148 0 0 0 345.7515474458068 225.69993029470564"></path>
	</g>
	<g>
		<path stroke-linecap="round" fill="none" stroke="#0084ff" stroke-width="6" d="M 314.3153532995459 266 A 132 132 0 0 0 324.0394259437399 245.14665891898827"></path>
		<path stroke-linecap="round" fill="none" stroke="#0084ff" stroke-width="6" d="M 266 314.3153532995459 A 132 132 0 0 0 301.1178664917051 284.84796447862317"></path>
		<path stroke-linecap="round" fill="none" stroke="#0084ff" stroke-width="6" d="M 177.07844054796522 329.99462339761146 A 132 132 0 0 0 222.9215594520348 329.99462339761146"></path>
		<path stroke-linecap="round" fill="none" stroke="#0084ff" stroke-width="6" d="M 75.9605740562601 245.1466589189883 A 132 132 0 0 0 134.00000000000003 314.3153532995459"></path>
		<path stroke-linecap="round" fill="none" stroke="#0084ff" stroke-width="6" d="M 115.15203552137677 98.88213350829491 A 132 132 0 0 0 70.00537660238854 177.0784405479652"></path>
		<path stroke-linecap="round" fill="none" stroke="#0084ff" stroke-width="6" d="M 245.14665891898832 75.9605740562601 A 132 132 0 0 0 222.92155945203476 70.00537660238854"></path>
		<path stroke-linecap="round" fill="none" stroke="#0084ff" stroke-width="6" d="M 301.11786649170506 115.15203552137677 A 132 132 0 0 0 266 85.68464670045411"></path>
	</g>
	</g>
</svg>